<?xml version="1.0" encoding="UTF-8"?><svg xmlns="http://www.w3.org/2000/svg" viewBox="0 0 412.27 513.02"><defs><style>.d{fill:#f1552a;}.e{fill:#8d2620;}.f{stroke:#fbb040;}.f,.g{stroke-width:6px;}.f,.g,.h{stroke-miterlimit:10;}.f,.h{fill:none;}.g{fill:#792533;stroke:#a51d2e;}.i{fill:#fff0c0;}.j{fill:#f79421;}.h{stroke:#f99c1c;stroke-width:5px;}.k{fill:#dd2826;}</style></defs><g id="a"/><g id="b"><g id="c"><g><g><g><path class="j" d="M355.78,198.79S367.38,4.79,212.37,1.77C46.01-1.48,71.93,198.79,71.93,198.79c.97,.42,35.48,0,35.48,0,0,0-12.52-149.01,99.84-150.48,118.27-1.55,105.66,150.48,105.66,150.48,0,0,41.62-.15,42.87,0Z"/><rect class="e" x="23.82" y="203.76" width="388.45" height="309.25" rx="60.12" ry="60.12"/><path class="i" d="M336.5,197.06S348.11,3.06,193.1,.04C26.73-3.2,52.65,197.06,52.65,197.06c.97,.42,35.48,0,35.48,0,0,0-12.52-149.01,99.84-150.48,118.27-1.55,105.66,150.48,105.66,150.48,0,0,41.62-.15,42.87,0Z"/><rect class="k" y="176.29" width="388.45" height="309.25" rx="60.12" ry="60.12"/></g><path class="d" d="M21.28,366.26c4.52,39.87-13.35-96.47,41.53-145.52,43.14-38.56,163.95-25.34,127.56-27.8-72.68-4.91-88.32-3.7-88.32-3.7-120.99,5.2-83.74,150.86-80.77,177.02Z"/></g><path class="g" d="M98.79,425.75l53.93-81.93c4.25-6.45,3.19-15.04-2.29-20.41-11.55-11.31-18.63-26.61-18.63-43.45,0-34.87,30.4-63.14,67.89-63.14s67.89,28.27,67.89,63.14c0,17.75-7.88,33.8-20.57,45.27-5.87,5.31-7.02,14.25-2.58,20.87l53.43,79.53c7.03,10.46-.26,24.72-12.62,24.72H111.49c-12.3,0-19.59-14.13-12.7-24.6Z"/><g><ellipse class="h" cx="232.96" cy="373.47" rx="14.43" ry="43.77" transform="translate(-152.44 160.82) rotate(-29.16)"/><ellipse class="h" cx="164.73" cy="373.47" rx="45.21" ry="14.45" transform="translate(-239.2 314.66) rotate(-57.92)"/><ellipse class="h" cx="222.68" cy="306.84" rx="26.88" ry="14.74" transform="translate(-153.43 354.57) rotate(-61.26)"/><ellipse class="h" cx="266.94" cy="428.12" rx="15.06" ry="16.29"/><ellipse class="h" cx="129.93" cy="424.29" rx="14.87" ry="16.09"/><ellipse class="h" cx="222.27" cy="261.79" rx="12.86" ry="21.69" transform="translate(-105.3 158.65) rotate(-32.19)"/><ellipse class="h" cx="178.06" cy="306.84" rx="14.78" ry="26.82" transform="translate(-125.57 123.36) rotate(-28.73)"/><ellipse class="h" cx="178.65" cy="260.93" rx="21.35" ry="13.12" transform="translate(-136.62 236.28) rotate(-51.13)"/></g><path class="f" d="M85.26,427.61l56.27-82.03c5.33-7.32,2.74-8.56-4.15-14.66-14.5-12.83-22.13-38.68-22.13-57.77,0-39.55,38.17-71.61,85.25-71.61s81.5,31.84,81.5,71.39c0,20.14-8.51,47.67-24.44,60.67-7.37,6.02-6.45,7.06-.87,14.57l52.53,70.63c5.24,7.04,7.31,16.16,5.2,24.75-.06,.26-.13,.51-.2,.77-2.54,9.26-10.89,15.57-20.26,15.64l-189.16,1.45c-10.23,.08-19.58-6.53-22.6-16.57-1.68-5.59-1.28-11.28,3.05-17.22Z"/></g></g></g></svg>